# AST/ASF file generated using VICON BodyLanguage
# -----------------------------------------------
:version 1.10
:name VICON
:units
  mass 1.0
  length 0.45
  angle deg
:documentation
   .ast/.asf automatically generated from VICON data using
   VICON BodyBuilder and BodyLanguage model FoxedUp or BRILLIANT.MOD
:root
   order TX TY TZ RX RY RZ
   axis XYZ
   position 0 0 0  
   orientation 0 0 0 
:bonedata
  begin
     id 1 
     name lhipjoint
     direction 0.566809 -0.746272 0.349008 
     length 2.40479 
     axis 0 0 0  XYZ
  end
  begin
     id 2 
     name lfemur
     direction 0.34202 -0.939693 0  
     length 7.1578  
     axis 0 0 20  XYZ
    dof rx ry rz
    limits (-160.0 20.0)
           (-70.0 70.0)
           (-60.0 70.0)
  end
  begin
     id 3 
     name ltibia
     direction 0.34202 -0.939693 0   
     length 7.49137   
     axis 0 0 20   XYZ
    dof rx
    limits (-10.0 170.0)
  end
  begin
     id 4 
     name lfoot
     direction 0.0665746 -0.182912 0.980873   
     length 2.36784   
     axis -90 7.62852e-016 20   XYZ
    dof rx rz
    limits (-45.0 90.0)
           (-70.0 20.0)
  end
  begin
     id 5 
     name ltoes
     direction 1.53601e-011 -4.22058e-011 1   
     length 1.18966   
     axis -90 7.62852e-016 20   XYZ
    dof rx
    limits (-90.0 20.0)
  end
  begin
     id 6 
     name rhipjoint
     direction -0.550236 -0.756381 0.353735   
     length 2.37265  
     axis 0 0 0  XYZ 
  end
  begin
     id 7 
     name rfemur
     direction -0.34202 -0.939693 0   
     length 7.43386   
     axis 0 0 -20   XYZ
    dof rx ry rz
    limits (-160.0 20.0)
           (-70.0 70.0)
           (-70.0 60.0)
  end
  begin
     id 8 
     name rtibia
     direction -0.34202 -0.939693 0   
     length 7.50908   
     axis 0 0 -20   XYZ
    dof rx
    limits (-10.0 170.0)
 end
 begin
     id 9 
     name rfoot
     direction -0.0683029 -0.187661 0.979856   
     length 2.41173  
     axis -90 -7.62852e-016 -20   XYZ
    dof rx rz
    limits (-45.0 90.0)
           (-20.0 70.0)
  end
  begin
     id 10 
     name rtoes
     direction -1.53528e-011 -4.21968e-011 1   
     length 1.21082   
     axis -90 -7.62852e-016 -20   XYZ
    dof rx
    limits (-90.0 20.0)
  end
  begin
     id 11 
     name lowerback
     direction 0.013823 0.995423 -0.0945635   
     length 2.04495   
     axis 0 0 0   XYZ
    dof rx ry rz
    limits (-20.0 45.0)
           (-30.0 30.0)
           (-30.0 30.0)
  end
  begin
     id 12 
     name upperback
     direction 0.0276657 0.9994 -0.020853   
     length 2.05008   
     axis 0 0 0   XYZ
    dof rx ry rz
    limits (-20.0 45.0)
           (-30.0 30.0)
           (-30.0 30.0)
  end
  begin
     id 13 
     name thorax
     direction 0.019782 0.999531 0.0233827   
     length 2.06488   
     axis 0 0 0   XYZ
    dof rx ry rz
    limits (-20.0 45.0)
           (-30.0 30.0)
           (-30.0 30.0)
  end
  begin
     id 14 
     name lowerneck
     direction -0.0308541 0.994709 0.0979874   
     length 1.75553   
     axis 0 0 0   XYZ
    dof rx ry rz
    limits (-20.0 45.0)
           (-30.0 30.0)
           (-30.0 30.0)
  end
  begin
     id 15 
     name upperneck
     direction 0.0588398 0.995804 -0.0700903   
     length 1.76878   
     axis 0 0 0   XYZ
    dof rx ry rz
    limits (-20.0 45.0)
           (-30.0 30.0)
           (-30.0 30.0)
  end
  begin
     id 16
     name head
     direction 0.0209966 0.999159 -0.0352225  
     length 1.77193  
     axis 0 0 0   XYZ
    dof rx ry rz
    limits (-20.0 45.0)
           (-30.0 30.0)
           (-30.0 30.0)
  end
  begin
     id 17 
     name lclavicle
     direction 0.938182 0.335073 -0.0868338  
     length 3.58396  
     axis 0 0 0   XYZ
    dof ry rz
    limits (-20.0 10.0)
           (0.0 20.0)
  end
  begin
     id 18 
     name lhumerus
     direction 1 -4.48971e-011 -1.26313e-017   
     length 4.983   
     axis 180 -30 -90   XYZ
    dof rx ry rz
    limits (-60.0 90.0)
           (-90.0 90.0)
           (-90.0 90.0)
  end
  begin
     id 19
     name lradius
     direction 1 -4.48948e-011 -5.89033e-027   
     length 3.48356   
     axis 180 -30 -90   XYZ
    dof rx
    limits (-10.0 170.0)
  end
  begin
     id 20
     name lwrist
     direction 1 -4.48977e-011 -1.48983e-026   
     length 1.74178   
     axis 9.0955e-015 90 90   XYZ
    dof ry
    limits (-180.0 0.0)
 end
  begin
     id 21 
     name lhand
     direction 1 -4.49046e-011 -2.98066e-026   
     length 0.715259   
     axis 1.90115e-014 90 90   XYZ
    dof rx rz
    limits (-90.0 90.0)
           (-45.0 45.0)
  end
  begin
     id 22 
     name lfingers
     direction 1 -4.48907e-011 -5.95731e-026   
     length 0.576661   
     axis 3.80223e-014 90 90   XYZ
    dof rx
    limits (0.0 90.0)
  end
  begin
     id 23
     name lthumb
     direction 0.707107 -6.34963e-011 0.707107   
     length 0.827973   
     axis -90 45 -3.84942e-014   XYZ
    dof rx rz
    limits (-45.0 45.0)
           (-45.0 45.0)
  end
  begin
     id 24 
     name rclavicle
     direction -0.909637 0.398485 -0.11735   
     length 3.44819  
     axis 0 0 0   XYZ 
    dof ry rz
    limits (-10.0 20.0)
           (-20.0 0.0)
  end
  begin
     id 25 
     name rhumerus
     direction -1 -4.48978e-011 -1.09333e-027  
     length 5.2419   
     axis 180 30 90   XYZ
    dof rx ry rz
    limits (-90.0 60.0)
           (-90.0 90.0)
           (-90.0 90.0)
  end
  begin
     id 26 
     name rradius
     direction -1 -4.48953e-011 -7.61841e-027   
     length 3.44417   
     axis 180 30 90   XYZ
    dof rx
    limits (-10.0 170.0)
  end
  begin
     id 27 
     name rwrist
     direction -1 -4.48977e-011 -1.48983e-026   
     length 1.72209   
     axis 9.0955e-015 -90 -90   XYZ
    dof ry
    limits (-180.0 0.0)
  end
  begin
     id 28
     name rhand
     direction -1 -4.49027e-011 -2.98038e-026   
     length 0.622529   
     axis 1.90115e-014 -90 -90   XYZ
    dof rx rz
    limits (-90.0 90.0)
           (-45.0 45.0)
  end
  begin
     id 29
     name rfingers
     direction -1 -4.48838e-011 -5.95531e-026   
     length 0.501899   
     axis 3.80223e-014 -90 -90   XYZ
    dof rx
    limits (0.0 90.0)
  end
  begin
     id 30
     name rthumb
     direction -0.707107 -6.34937e-011 0.707107   
     length 0.720629   
     axis -90 -45 3.84942e-014   XYZ
    dof rx rz
    limits (-45.0 45.0)
           (-45.0 45.0)
  end
:hierarchy
  begin
    root lhipjoint rhipjoint lowerback
    lhipjoint lfemur
    lfemur ltibia
    ltibia lfoot
    lfoot ltoes
    rhipjoint rfemur
    rfemur rtibia
    rtibia rfoot
    rfoot rtoes
    lowerback upperback
    upperback thorax
    thorax lowerneck lclavicle rclavicle
    lowerneck upperneck
    upperneck head
    lclavicle lhumerus
    lhumerus lradius
    lradius lwrist
    lwrist lhand lthumb
    lhand lfingers
    rclavicle rhumerus
    rhumerus rradius
    rradius rwrist
    rwrist rhand rthumb
    rhand rfingers
  end

#!OML:ASF F:\VICON\USERDATA\Patient Classification 1\PLAYGROUND\JustinFriday\JustinFriday.ASF
:FULLY-SPECIFIED
:DEGREES
684
root 34.9222 27.6135 -8.75831 153.693 -83.8443 -134.735
lowerback 46.6836 3.05665 -3.67554
upperback 8.82285 0.688551 1.86562
thorax -11.5426 -0.274457 3.71944
lowerneck 5.35797 -14.9636 -13.8759
upperneck -35.3723 -18.1273 29.5754
head -6.92877 -11.9298 13.7539
rclavicle -6.36111e-015 3.57812e-015
rhumerus 43.5719 6.79653 -63.4935
rradius 86.5467
rwrist 10.0909
rhand -12.9783 -17.0692
rfingers 7.12502
rthumb 13.1141 -46.6368
lclavicle -6.36111e-015 3.57812e-015
lhumerus 35.6142 -6.33199 68.528
lradius 88.837
lwrist -30.6165
lhand -25.3632 -20.069
lfingers 7.12502
lthumb 1.16074 9.9076
rfemur -84.8808 0.986258 27.4351
rtibia 102.048
rfoot -27.6898 -6.01266
rtoes 2.95706
lfemur -30.7081 7.69415 -23.4954
ltibia 27.8465
lfoot -11.6248 -1.00411
ltoes -21.1359
685
root 34.8964 27.7043 -8.77006 155.275 -83.9126 -136.277
lowerback 46.498 3.02909 -3.91973
upperback 8.90019 0.542617 1.83275
thorax -11.3933 -0.338305 3.87462
lowerneck 5.54028 -15.0282 -10.4449
upperneck -36.9495 -18.451 26.8747
head -8.32515 -12.1601 12.7118
rclavicle -1.27222e-014 -1.86858e-014
rhumerus 43.536 7.25338 -63.9738
rradius 86.6553
rwrist 10.2584
rhand -13.407 -16.4059
rfingers 7.12502
rthumb 12.7008 -45.9997
lclavicle -1.27222e-014 -1.86858e-014
lhumerus 35.4263 -5.31104 69.2082
lradius 88.9439
lwrist -32.6894
lhand -22.9934 -21.2621
lfingers 7.12502
lthumb 3.4495 8.68974
rfemur -83.9544 1.10987 27.214
rtibia 100.697
rfoot -27.511 -6.02499
rtoes 2.54955
lfemur -29.991 5.05266 -21.7499
ltibia 28.0352
lfoot -10.6035 -3.95267
ltoes 11.5933
686
root 34.8685 27.7044 -8.78384 153.467 -83.9278 -134.668
lowerback 46.7827 2.91452 -3.65745
upperback 8.86576 0.50042 1.78606
thorax -11.5016 -0.361678 3.71029
lowerneck 6.11374 -15.1814 -10.8807
upperneck -37.4145 -18.5625 27.7615
head -8.37169 -12.3261 13.211
rclavicle 1.66979e-014 3.45885e-014
rhumerus 43.192 7.49337 -64.535
rradius 86.7505
rwrist 10.4747
rhand -13.9169 -15.9505
rfingers 7.12502
rthumb 12.2093 -45.5742
lclavicle 1.66979e-014 3.45885e-014
lhumerus 35.0127 -5.82418 68.6668
lradius 89.2469
lwrist -31.5308
lhand -24.8584 -20.3225
lfingers 7.12502
lthumb 1.64833 9.65085
rfemur -83.2886 1.19979 27.3693
rtibia 99.8258
rfoot -27.1498 -6.1663
rtoes 2.0687
lfemur -29.7586 5.27262 -21.6476
ltibia 28.1503
lfoot -10.7544 -4.07369
ltoes 10.0654
687
root 34.8475 27.7015 -8.79766 153.496 -83.8971 -134.595
lowerback 46.5729 2.86634 -3.49429
upperback 8.79326 0.539699 1.72974
thorax -11.5326 -0.336045 3.5471
lowerneck 6.24882 -15.1454 -11.5215
upperneck -36.9569 -18.4896 28.1066
head -8.10659 -12.241 13.3414
rclavicle 2.62396e-014 1.11319e-014
rhumerus 42.7234 7.66925 -65.0443
rradius 86.8806
rwrist 10.6563
rhand -14.2997 -15.6768
rfingers 7.12502
rthumb 11.8401 -45.3221
lclavicle 2.62396e-014 1.11319e-014
lhumerus 34.5774 -4.89774 69.4402
lradius 89.5268
lwrist -33.5988
lhand -21.8318 -22.1111
lfingers 7.12502
lthumb 4.57114 7.81954
rfemur -82.9724 1.38411 27.4027
rtibia 98.999
rfoot -26.6439 -6.39365
rtoes 1.28121
lfemur -29.897 4.98006 -21.4205
ltibia 28.5295
lfoot -10.9993 -3.99089
ltoes 11.5047
688
root 34.8239 27.6809 -8.81596 152.666 -83.8423 -133.664
lowerback 46.4471 2.77255 -3.31588
upperback 8.74512 0.523322 1.69521
thorax -11.5533 -0.339375 3.42588
lowerneck 6.24645 -15.2954 -10.5315
upperneck -37.195 -18.7461 27.3973
head -8.38473 -12.3821 13.0046
rclavicle -7.15625e-015 -1.23246e-014
rhumerus 42.3881 7.92033 -65.5853
rradius 87.0792
rwrist 10.6653
rhand -14.789 -15.4208
rfingers 7.12502
rthumb 11.3682 -45.0926
lclavicle -7.15625e-015 -1.23246e-014
lhumerus 34.3551 -5.82452 69.1366
lradius 89.4701
lwrist -31.5342
lhand -24.2672 -20.8343
lfingers 7.12502
lthumb 2.21928 9.13394
rfemur -82.6845 1.64288 27.5165
rtibia 98.3064
rfoot -26.2006 -6.90595
rtoes -0.231071
lfemur -30.1147 5.23168 -21.3588
ltibia 28.6305
lfoot -10.9989 -3.96164
ltoes 9.92043
689
root 34.7925 27.6147 -8.83813 149.209 -83.7214 -130.025
lowerback 46.319 2.55674 -2.89261
upperback 8.72708 0.475315 1.69286
thorax -11.5362 -0.36428 3.22896
lowerneck 6.2579 -15.2199 -11.3863
upperneck -37.0587 -18.5775 28.1626
head -8.13377 -12.315 13.353
rclavicle -1.27222e-014 -1.19271e-015
rhumerus 42.079 8.17477 -66.1291
rradius 87.3124
rwrist 10.5795
rhand -15.6324 -15.0487
rfingers 7.12502
rthumb 10.5548 -44.7636
lclavicle -1.27222e-014 -1.19271e-015
lhumerus 34.03 -5.35632 69.0902
lradius 89.9475
lwrist -32.6961
lhand -22.4086 -20.9783
lfingers 7.12502
lthumb 4.01421 8.96366
rfemur -82.7736 1.90391 27.9689
rtibia 97.9165
rfoot -25.8448 -7.50451
rtoes -2.24073
lfemur -30.9123 8.17187 -22.6535
ltibia 28.9073
lfoot -12.4227 -1.98265
ltoes -17.8619
690
root 34.7662 27.6806 -8.85334 149.247 -83.7852 -129.886
lowerback 46.0686 2.45752 -2.94105
upperback 8.76274 0.340442 1.62388
thorax -11.4188 -0.419877 3.23892
lowerneck 6.21516 -15.3179 -11.1074
upperneck -37.0927 -18.7174 28.0517
head -8.16328 -12.4049 13.2663
rclavicle -3.18055e-015 4.05521e-014
rhumerus 41.8616 8.4665 -66.6615
rradius 87.5098
rwrist 10.6291
rhand -16.2574 -14.5175
rfingers 7.12502
rthumb 9.95183 -44.2623
lclavicle -3.18055e-015 4.05521e-014
lhumerus 33.4498 -6.04677 67.8731
lradius 90.6549
lwrist -30.9433
lhand -24.8836 -19.0371
lfingers 7.12502
lthumb 1.62399 10.9364
rfemur -82.0705 1.87003 28.013
rtibia 96.866
rfoot -25.5508 -7.81366
rtoes -3.81831
lfemur -30.4773 5.63884 -21.0149
ltibia 28.947
lfoot -11.0572 -4.3203
ltoes 9.77164
691
root 34.7362 27.6638 -8.8771 152.067 -84.0371 -132.611
lowerback 45.9599 2.47483 -3.32167
upperback 8.7532 0.180434 1.49304
thorax -11.3877 -0.477031 3.36336
lowerneck 6.27822 -15.4231 -10.7734
upperneck -37.2315 -18.8791 27.8905
head -8.2615 -12.5072 13.1903
rclavicle 9.54166e-015 1.43125e-014
rhumerus 41.61 8.71136 -67.1454
rradius 87.6858
rwrist 10.8126
rhand -16.5332 -14.1632
rfingers 7.12502
rthumb 9.68578 -43.9205
lclavicle 9.54166e-015 1.43125e-014
lhumerus 33.027 -5.3126 68.0952
lradius 90.9415
lwrist -32.0209
lhand -23.3114 -20.4357
lfingers 7.12502
lthumb 3.14238 9.52089
rfemur -81.8411 1.89531 27.6348
rtibia 96.3349
rfoot -25.0616 -8.06469
rtoes -4.7407
lfemur -30.9959 10.1128 -22.6619
ltibia 29.0718
lfoot -10.3331 -9.03317
ltoes 11.0142
692
root 34.7111 27.6644 -8.90384 153.412 -84.2578 -133.97
lowerback 46.0945 2.49553 -3.50925
upperback 8.74226 0.105874 1.44842
thorax -11.4294 -0.504988 3.44519
lowerneck 5.64725 -15.2708 -11.4396
upperneck -36.7345 -18.5472 28.5713
head -7.83869 -12.3493 13.3487
rclavicle -7.95139e-016 2.0276e-014
rhumerus 41.3682 8.83118 -67.425
rradius 87.9197
rwrist 11.1056
rhand -16.946 -14.0429
rfingers 7.12502
rthumb 9.28741 -43.8183
lclavicle -7.95139e-016 2.0276e-014
lhumerus 33.0734 -5.60586 68.4703
lradius 90.8604
lwrist -31.4111
lhand -24.6027 -19.7568
lfingers 7.12502
lthumb 1.89525 10.2146
rfemur -81.3091 1.99551 27.3284
rtibia 95.6731
rfoot -24.8271 -7.71303
rtoes -3.6316
lfemur -30.7682 8.70869 -22.4066
ltibia 29.1676
lfoot -10.6684 -7.72266
ltoes 10.5904
